<svg width="20" height="20" viewBox="0 0 20 20" fill="none" xmlns="http://www.w3.org/2000/svg">
<path d="M3.17554 6.04581H5.17554H21.1755" stroke="#FF0000" stroke-width="2" stroke-linecap="round" stroke-linejoin="round"/>
<path d="M8.17554 6.04581V4.04581C8.17554 3.51537 8.38625 3.00667 8.76132 2.63159C9.1364 2.25652 9.6451 2.04581 10.1755 2.04581H14.1755C14.706 2.04581 15.2147 2.25652 15.5898 2.63159C15.9648 3.00667 16.1755 3.51537 16.1755 4.04581V6.04581M19.1755 6.04581V20.0458C19.1755 20.5762 18.9648 21.0849 18.5898 21.46C18.2147 21.8351 17.706 22.0458 17.1755 22.0458H7.17554C6.6451 22.0458 6.1364 21.8351 5.76132 21.46C5.38625 21.0849 5.17554 20.5762 5.17554 20.0458V6.04581H19.1755Z" stroke="#FF0000" stroke-width="2" stroke-linecap="round" stroke-linejoin="round"/>
<path d="M14.1755 11.0458V17.0458" stroke="#FF0000" stroke-width="2" stroke-linecap="round" stroke-linejoin="round"/>
<path d="M10.1755 11.0458V17.0458" stroke="#FF0000" stroke-width="2" stroke-linecap="round" stroke-linejoin="round"/>
</svg>
